name Walk4.mot
datacolumns 19
datarows 12
range 1.37100000 1.38200000
endheader

                time	   L_ground_force_vx	   L_ground_force_vy	   L_ground_force_vz	   L_ground_force_px	   L_ground_force_py	   L_ground_force_pz	   R_ground_force_vx	   R_ground_force_vy	   R_ground_force_vz	   R_ground_force_px	   R_ground_force_py	   R_ground_force_pz	   L_ground_torque_x	   L_ground_torque_y	   L_ground_torque_z	   R_ground_torque_x	   R_ground_torque_y	   R_ground_torque_z	
          1.37100000	          0.98816641	        633.88887070	         31.75353246	         -0.36916891	          0.00000000	         -0.08187885	         -0.05177541	          0.27246980	          0.00002725	          0.00007384	          0.00000000	          0.00007863	          0.00000000	         -0.92744181	          0.00000000	          0.00000000	         -0.00001873	          0.00000000	
          1.37200000	          1.33470726	        634.47780046	         31.94852620	         -0.36878782	          0.00000000	         -0.08189861	         -0.05443770	          0.28693460	         -0.00010218	          0.00007637	          0.00000000	          0.00008104	          0.00000000	         -0.93156610	          0.00000000	          0.00000000	         -0.00001977	          0.00000000	
          1.37300000	          1.68937295	        635.09931736	         32.14264485	         -0.36840788	          0.00000000	         -0.08191667	         -0.05712257	          0.30155854	         -0.00024321	          0.00007883	          0.00000000	          0.00008334	          0.00000000	         -0.93577449	          0.00000000	          0.00000000	         -0.00002083	          0.00000000	
          1.37400000	          2.05254078	        635.75431803	         32.33592083	         -0.36802934	          0.00000000	         -0.08193304	         -0.05982101	          0.31629600	         -0.00039634	          0.00008119	          0.00000000	          0.00008552	          0.00000000	         -0.94004665	          0.00000000	          0.00000000	         -0.00002190	          0.00000000	
          1.37500000	          2.42457944	        636.44365668	         32.52839026	         -0.36765248	          0.00000000	         -0.08194776	         -0.06252315	          0.33109666	         -0.00056207	          0.00008344	          0.00000000	          0.00008754	          0.00000000	         -0.94436195	          0.00000000	          0.00000000	         -0.00002299	          0.00000000	
          1.37600000	          2.80584838	        637.16814216	         32.72009224	         -0.36727757	          0.00000000	         -0.08196085	         -0.06521817	          0.34590527	         -0.00074087	          0.00008554	          0.00000000	          0.00008939	          0.00000000	         -0.94869985	          0.00000000	          0.00000000	         -0.00002407	          0.00000000	
          1.37700000	          3.19669724	        637.92853459	         32.91106814	         -0.36690487	          0.00000000	         -0.08197233	         -0.06789428	          0.36066142	         -0.00093324	          0.00008750	          0.00000000	          0.00009104	          0.00000000	         -0.95304009	          0.00000000	          0.00000000	         -0.00002516	          0.00000000	
          1.37800000	          3.59746553	        638.72554213	         33.10136080	         -0.36653463	          0.00000000	         -0.08198223	         -0.07053867	          0.37529929	         -0.00113962	          0.00008927	          0.00000000	          0.00009247	          0.00000000	         -0.95736276	          0.00000000	          0.00000000	         -0.00002625	          0.00000000	
          1.37900000	          4.00848226	        639.55981835	         33.29101369	         -0.36616712	          0.00000000	         -0.08199059	         -0.07313748	          0.38974742	         -0.00136047	          0.00009083	          0.00000000	          0.00009365	          0.00000000	         -0.96164821	          0.00000000	          0.00000000	         -0.00002733	          0.00000000	
          1.38000000	          4.43006566	        640.43196030	         33.48006988	         -0.36580257	          0.00000000	         -0.08199743	         -0.07567573	          0.40392853	         -0.00159623	          0.00009217	          0.00000000	          0.00009455	          0.00000000	         -0.96587689	          0.00000000	          0.00000000	         -0.00002840	          0.00000000	
          1.38100000	          4.86252288	        641.34250697	         33.66857057	         -0.36544123	          0.00000000	         -0.08200280	         -0.07813731	          0.41775923	         -0.00184730	          0.00009325	          0.00000000	          0.00009515	          0.00000000	         -0.97002929	          0.00000000	          0.00000000	         -0.00002944	          0.00000000	
          1.38200000	          5.30614963	        642.29193760	         33.85655348	         -0.36508332	          0.00000000	         -0.08200673	         -0.08050493	          0.43114984	         -0.00211408	          0.00009405	          0.00000000	          0.00009540	          0.00000000	         -0.97408606	          0.00000000	          0.00000000	         -0.00003047	          0.00000000	
